<svg xmlns="http://www.w3.org/2000/svg" data-name="Layer 1" viewBox="0 0 838.1 366.6">
    <path data-name="1"  fill="#8c8b8b" d="m639.8 52.7 20.8 27.6-48.7 10.3-20.1-28.1 48-9.8z"/>
    <path data-name="2"  fill="#8c8b8b" d="m701.5 92 7.3 9.3-21.4 4.8-7.1-9.5 21.2-4.6z"/>
    <path data-name="3"  fill="#8c8b8b" d="m659.4 6.9 96-6.9 82.7 94.6-92.3 20.9-8.8-11.1-31.9 7.1-5.3-6.8 11.5-2.6-8.2-10.5 20.2-4.4L709.5 70l-47.3 10-28.9-38.3 46.4-9.2-20.3-25.6z"/>
    <path data-name="4"  fill="#8c8b8b" d="m691.9 115.8 13.6 18-45 10.3-2.5-20.7 33.9-7.6z"/>
    <path data-name="5"  fill="#8c8b8b" d="m530.7 57.7 11.2 16.8-25.6 5.1-11-16.9 25.4-5z"/>
    <path data-name="6"  fill="#8c8b8b" d="m542.7 75.6 7.6 11.4-25.8 5.3-7.5-11.5 25.7-5.2z"/>
    <path data-name="7"  fill="#8c8b8b" d="M547.2 40.3 582.5 52l27.7 38.9-58.5 12.4-8.9-13.4 10.2-2.2-9.2-13.6-11.9-17.9-34.8 6.9-7.4-11.6 57.5-11.2z"/>
    <path data-name="8"  fill="#8c8b8b" d="m535.9 97.9 7.4 11.2-16.1 3.4-7.3-11.3 16-3.3z"/>
    <path data-name="9"  fill="#8c8b8b" d="m608.7 110.7 10.6 15.2-.4.9-26.4 5.9-10.9-16.1 27.1-5.9z"/>
    <path data-name="10"  fill="#8c8b8b" d="m579.9 117 10.9 16.1-30.8 6.8-10.6-16.3 30.5-6.6z"/>
    <path data-name="11"  fill="#8c8b8b" d="m706.4 135 9.3 12.3-58.1 13.5 2.8-15.2 46-10.6z"/>
    <path data-name="12"  fill="#8c8b8b" d="m547.7 124 10.6 16.3-6.2 1.3-18.2 4.1-2.6-4.1 9.4-16.1 7-1.5z"/>
    <path data-name="13"  fill="#8c8b8b" d="m551.2 143.3 5.7 8.8-16.6 3.7-5.6-8.9 16.5-3.6z"/>
    <path data-name="14"  fill="#8c8b8b" d="m565.5 151.6 4.1 6.3-24.4 5.6-4.1-6.4 24.4-5.5z"/>
    <path data-name="15"  fill="#8c8b8b" d="m692.1 154.3 14 19-40.2 9.7-15.7-6.4 6.8-14.1 35.1-8.2z"/>
    <path data-name="16"  fill="#8c8b8b" d="m562.6 161 8.4 12.9-16.8 3.9-8.2-13 16.6-3.8z"/>
    <path data-name="17"  fill="#8c8b8b" d="m618.3 128.1-28.1 59.1-26.1 6.2-9-14.3 18.5-4.3-9.2-14.2 7.8-1.8-5.8-8.9-7.8 1.8-5.8-9 6.2-1.4 5.1-1.1 28-6.3 1.1-.2 25.1-5.6z"/>
    <path data-name="18"  fill="#8c8b8b" d="m649.2 178.1 15.9 6.6 41.9-10.1 22.3 30.2-40.7 10.2-13.2-18.7-12.1 3-22.6-10.6 8.5-10.6z"/>
    <path data-name="19"  fill="#8c8b8b" d="m639.5 189.9 23.6 11.1 11.4-2.9 12.4 17.6-43.9 11-17.1-25.5 13.6-11.3z"/>
    <path data-name="20"  fill="#8c8b8b" d="m624.6 202.3 16.5 24.7-36.8 9.2-3.6-21.8 23.9-12.1z"/>
    <path data-name="21"  fill="#8c8b8b" d="M563.8 213a15.33 15.33 0 0 1 4.3-.3 15 15 0 0 1 4.2.9 16.16 16.16 0 0 1 3.7 1.9 10.26 10.26 0 0 1 2.7 2.8 6.47 6.47 0 0 1 1.1 3.2 5.41 5.41 0 0 1-.6 3 6.11 6.11 0 0 1-2.1 2.4 11.3 11.3 0 0 1-3.5 1.6 15.33 15.33 0 0 1-4.3.4 14.28 14.28 0 0 1-4.2-.9 16.16 16.16 0 0 1-3.7-1.9 8.63 8.63 0 0 1-2.6-2.8 5.72 5.72 0 0 1-1-3.2 5.52 5.52 0 0 1 .7-3 7.1 7.1 0 0 1 2.2-2.4 6.14 6.14 0 0 1 3.1-1.7Z"/>
    <path data-name="22"  fill="#8c8b8b" d="m463.8 91.6-3 11.2-11.2 9.1-9.1-15.6 23.3-4.7z"/>
    <path data-name="23"  fill="#8c8b8b" d="m437 44.4 27.8 45.7-26.8 5.4 10.5 17.9-35.4 7.4-10.5-18.8 9.7-1.9-6.3-11.3-9.7 2-19.5-35L437 44.4z"/>
    <path data-name="24"  fill="#8c8b8b" d="m458.3 137 5.5 9.4-13.5 2.9-5.4-9.5 13.4-2.8z"/>
    <path data-name="25"  fill="#8c8b8b" d="m380.6 66.1 13.3 23.8-67.1 13.4-8.1-16.1 41.1-8-4.5-8.3 25.3-4.8z"/>
    <path data-name="26"  fill="#8c8b8b" d="m385.8 92.9 16.5 30.1-46.4 9.7-15.7-30.7 45.6-9.1z"/>
    <path data-name="27"  fill="#8c8b8b" d="m443.1 140.2 5.4 9.5-31.8 7-5.3-9.7 31.7-6.8z" />
    <path data-name="28"  fill="#8c8b8b" d="m409.6 147.4 5.3 9.7-13.8 3-5.2-9.7 13.7-3z"/>
    <path data-name="29"  fill="#8c8b8b" d="m394.2 150.7 5.1 9.7-13.9 3.1-5.1-9.8 13.9-3z"/>
    <path data-name="30"  fill="#8c8b8b" d="m316.9 87.5 8.7 17.3 12.7-2.5 15.8 30.8-12.2 16.6-48.4 10.3-26.2-56.9 49.6-15.6z"/>
    <path data-name="31"  fill="#8c8b8b" d="m481.4 170.9 4.4 7.6 18.5-4.2 32.1 53.4-47.8 11.7-8-14.3-26.7-9.6-18.8-34.2 18.4-4.1 27.9-6.3z"/>
    <path data-name="32"  fill="#8c8b8b" d="m537.2 229.1 21.8 18.5-57.6 14.5-12-21.3 47.8-11.7z"/>
    <path data-name="33"  fill="#8c8b8b" d="m668.2 221.8 55.2 80-7.8 20.7-155.2 44.1-29.6-11.2-47.9-87 81.2-20.4 8.9 14.6 38.1-9.8-9.2-14.3 66.3-16.7z"/>
    <path data-name="34"  fill="#8c8b8b" d="m276.8 128.2 14.8 32.2-20.4 4.3-14.4-32.5 20-4z"/>
    <path data-name="35"  fill="#8c8b8b" d="m254.9 132.6 11.5 25.9-32.3 6.8-10.9-26.2 31.7-6.5z"/>
    <path data-name="36"  fill="#8c8b8b" d="m415.8 185.7 18.5 34.5-5.9 9.3-49.7 11.8-11.3-22.8 21.4-4.9-9.9-19.6 36.9-8.3z"/>
    <path data-name="37"  fill="#8c8b8b" d="m349.1 185.5 27.9 8.9 9.2 18.2-21.4 5 11.9 24.2-61.3 14.6-25.8-57.7 59.5-13.2z"/>
    <path data-name="38"  fill="#8c8b8b" d="m202.2 166.1 18.9 47.7 66.5-14.7 22.4 50.3-63.1 14.9 9.3 23.2-180.6 43.7-29.1-11.8-30-114.6 185.7-38.7z" />
    <path data-name="39"  fill="#8c8b8b" d="m69.5 109.2 1.8 5.7 88.5-16.8 31 26.1 22.2-4.4 7.7 18.4-22.5 4.5 5 12.4-26.2 5.4 2.5 6.7-164 34.1L0 142.1l17.3-17 30.7-5.8-1.7-5.7 23.2-4.4z"/>
</svg>